<svg version="1.1" id="Layer_1" xmlns="http://www.w3.org/2000/svg" xmlns:xlink="http://www.w3.org/1999/xlink" x="0px" y="0px"
	 width="100%" viewBox="0 0 1024 1024" enable-background="new 0 0 1024 1024" xml:space="preserve">
<path fill="#1e7e34" opacity="1.000000" stroke="none" 
	d="
M442.719208,396.513184 
	C475.741302,387.977661 505.977325,391.669891 532.031189,414.707886 
	C546.061340,427.113953 555.448059,442.733643 561.479858,460.409271 
	C573.260071,494.930634 575.043457,530.106750 564.774170,564.966919 
	C560.721741,578.723145 559.120483,592.043091 559.140076,606.054382 
	C559.255188,688.384888 559.189453,770.715576 559.191040,853.046204 
	C559.191162,861.136169 559.211121,861.107849 551.175781,861.104797 
	C497.844147,861.084778 444.512512,861.073486 391.180878,861.070740 
	C382.888153,861.070312 382.850220,861.085388 382.849121,852.731445 
	C382.837250,764.067627 382.826691,675.403870 382.859283,586.740051 
	C382.860474,583.507690 382.216278,580.539917 381.065155,577.522827 
	C371.059021,551.297302 368.457581,524.176575 372.124420,496.482910 
	C373.453491,486.445343 374.892944,476.221619 378.052979,466.668671 
	C384.873108,446.051300 395.055725,427.318909 412.356567,413.175751 
	C421.394684,405.787292 431.284943,400.233582 442.719208,396.513184 
M443.996094,454.478455 
	C436.533386,462.394958 433.067749,472.384796 430.377258,482.503052 
	C424.636230,504.093933 424.778107,525.995361 428.965210,547.820374 
	C431.038971,558.629700 434.053864,569.322815 441.231079,578.062256 
	C443.989471,581.421021 444.997070,584.816833 444.968872,589.004150 
	C444.852203,606.331177 445.292206,623.670715 444.765411,640.982422 
	C444.498840,649.743591 447.081940,656.870850 452.523651,663.434021 
	C457.248444,669.132568 457.145508,670.008606 453.193237,676.061523 
	C448.844025,682.722412 448.947968,691.278442 453.458984,697.933289 
	C460.130005,707.774658 460.129761,710.885193 453.056915,720.726868 
	C450.764709,723.916382 449.829468,726.981689 451.204346,730.945251 
	C453.893616,738.698242 452.880249,746.220825 449.463257,753.711548 
	C441.648743,770.842407 442.805206,769.047974 453.998444,780.196533 
	C455.992401,782.182556 457.408569,785.128235 461.923859,785.531494 
	C461.923859,736.270996 461.923859,687.346680 461.923859,637.242981 
	C466.611969,639.734558 471.194580,640.386047 471.251862,645.363892 
	C471.493317,666.347229 471.808411,687.346985 471.561798,708.314880 
	C471.240509,735.628784 471.739197,762.936035 471.392548,790.243958 
	C471.371155,791.927795 471.459564,793.717407 473.314941,794.501160 
	C475.210724,795.302063 476.483551,793.974121 477.652252,792.799561 
	C482.351654,788.076416 486.982483,783.284912 491.686066,778.565979 
	C494.810577,775.431213 495.822388,771.795349 495.812836,767.319702 
	C495.686310,708.004395 495.760254,648.688660 495.677490,589.373169 
	C495.672028,585.462585 496.352936,582.124817 499.416351,579.545532 
	C504.185730,575.529907 506.795685,570.146423 508.750458,564.435425 
	C518.611450,535.625366 518.187805,506.574280 510.336273,477.459534 
	C507.370117,466.460632 501.942139,456.841400 492.815491,449.613373 
	C478.445740,438.232971 456.474609,440.171448 443.996094,454.478455 
z"/>
<path fill="#1e7e34" opacity="1.000000" stroke="none" 
	d="
M131.262115,311.249573 
	C170.298172,276.908417 209.050507,242.780136 247.853836,208.709946 
	C271.135437,188.268158 294.533600,167.959183 317.813751,147.515793 
	C357.360565,112.787918 396.857819,78.003571 436.371033,43.237431 
	C448.751160,32.344585 461.107941,21.425148 473.490601,10.535131 
	C480.017792,4.794741 480.045624,4.826855 486.820496,11.061045 
	C504.955200,27.748474 522.951904,44.589859 541.283447,61.058319 
	C562.963745,80.535072 584.956970,99.663109 606.776428,118.985336 
	C619.865540,130.576431 632.882568,142.248947 645.929810,153.887329 
	C647.161011,154.985580 648.263489,156.309738 650.227173,156.203461 
	C652.420776,154.898849 651.658264,152.682602 651.665710,150.824631 
	C651.724609,136.159241 651.835876,121.491173 651.600647,106.829231 
	C651.529114,102.367310 653.250854,101.028481 657.420776,101.042732 
	C680.085449,101.120232 702.750732,101.016121 725.415710,101.046295 
	C731.540771,101.054443 732.185791,101.767868 732.188782,108.070808 
	C732.207581,147.068069 732.280396,186.065765 732.081238,225.062042 
	C732.055725,230.050110 733.656433,233.340897 737.334900,236.608719 
	C769.715027,265.373901 801.921326,294.334686 834.207092,323.206207 
	C848.235291,335.750916 862.333557,348.217255 876.386230,360.734619 
	C877.852722,362.040802 879.598877,363.205536 879.597229,365.551910 
	C878.190979,367.160980 876.261230,366.872925 874.494324,366.863403 
	C849.012329,366.726288 823.530640,366.504120 798.048523,366.425446 
	C794.642578,366.414948 792.469971,364.487671 790.245605,362.519775 
	C772.152283,346.512726 754.050720,330.514496 736.033081,314.422455 
	C710.936279,292.007812 685.913940,269.509888 660.852417,247.055771 
	C636.660034,225.380447 612.488037,203.682358 588.252747,182.055191 
	C562.772583,159.317154 537.202576,136.679932 511.725220,113.938843 
	C502.531342,105.732460 493.401794,97.448769 484.431091,89.000488 
	C481.226837,85.982811 478.915436,85.961479 475.555176,88.931534 
	C445.986664,115.066422 416.292633,141.059402 386.611481,167.066666 
	C366.199066,184.952454 345.413666,202.430038 325.430328,220.781891 
	C311.780487,233.317322 297.421478,244.994507 283.593597,257.303558 
	C259.129425,279.080536 234.310867,300.459198 209.680771,322.050323 
	C207.637909,323.841095 205.435623,324.479004 202.809006,324.293030 
	C185.046173,323.035339 167.284286,321.759766 149.514481,320.607544 
	C143.865265,320.241272 138.192352,320.248016 132.531342,320.053131 
	C130.080139,319.968781 127.642029,319.767090 125.221443,318.496460 
	C126.183983,314.999329 128.961243,313.541321 131.262115,311.249573 
z"/>
<path fill="#1e7e34" opacity="1.000000" stroke="none" 
	d="
M208.000153,640.095764 
	C153.669296,640.149536 99.838318,640.170410 46.007660,640.312805 
	C41.455391,640.324829 39.388477,639.145752 39.582458,634.081421 
	C39.977730,623.762146 40.508896,613.352539 39.578529,603.107727 
	C38.809822,594.643127 42.536125,589.523132 48.237724,584.387817 
	C67.420166,567.110657 86.270576,549.465027 105.442543,532.176086 
	C121.398506,517.787292 137.431778,503.482513 152.855621,488.524475 
	C161.686630,479.960083 170.836975,471.547424 176.320587,460.220795 
	C180.830673,450.905060 181.615051,441.134033 179.306763,431.022858 
	C176.418396,418.370636 167.236969,411.696777 155.910065,408.782318 
	C126.979561,401.338409 101.501404,407.610199 81.142105,430.476746 
	C75.246223,437.098663 75.391510,436.954712 67.759399,432.227264 
	C55.868599,424.861969 43.807369,417.765228 31.695745,410.766907 
	C27.922197,408.586456 27.129543,406.734558 29.398623,402.552734 
	C40.909302,381.339020 59.393391,368.749481 80.914162,359.653564 
	C95.860840,353.336243 111.702576,351.280029 127.634224,349.852570 
	C146.008118,348.206238 164.309326,349.586914 182.184250,353.900421 
	C200.786774,358.389465 217.824951,366.586761 230.569580,381.316742 
	C242.500397,395.106110 248.071365,411.908569 249.204727,429.910065 
	C251.304092,463.254639 237.548294,490.093719 213.624969,512.237488 
	C190.775162,533.387573 167.609573,554.196289 144.662292,575.241821 
	C142.835724,576.916992 139.442322,578.480408 140.750214,581.518250 
	C141.933121,584.265747 145.245621,582.866638 147.597610,582.871338 
	C182.763184,582.942200 217.929260,582.992920 253.094299,582.840210 
	C257.750671,582.820007 259.556427,584.021729 259.466888,588.983887 
	C259.193390,604.145020 259.261810,619.316101 259.470428,634.479553 
	C259.527802,638.648743 258.037659,640.048401 253.996765,640.024475 
	C238.831879,639.934570 223.665771,640.053833 208.000153,640.095764 
z"/>
<path fill="#1e7e34" opacity="1.000000" stroke="none" 
	d="
M626.013489,617.992310 
	C606.716492,599.387451 597.397156,576.155396 592.891541,550.759888 
	C588.583191,526.476440 588.103455,502.060760 593.740723,477.887207 
	C599.386047,453.679382 608.805420,431.352448 627.770691,414.171173 
	C651.434753,392.733063 679.165649,387.957550 709.285889,395.158081 
	C734.521240,401.190857 751.723267,417.844818 764.160828,439.907043 
	C775.269592,459.612213 779.370972,481.249695 781.399231,503.443542 
	C783.451050,525.894409 781.748291,548.081299 775.173706,569.611328 
	C766.586914,597.730530 751.158630,620.740540 723.596802,633.784851 
	C690.789978,649.311401 652.764221,643.226379 626.013489,617.992310 
M651.054871,470.532593 
	C649.432312,474.381195 648.230957,478.356628 647.374084,482.445068 
	C643.311218,501.831146 642.384705,521.284790 645.095337,540.985352 
	C646.846802,553.714722 649.869446,565.820496 657.685364,576.267212 
	C670.162659,592.944397 693.720764,596.584717 708.582031,582.618652 
	C717.028259,574.681335 721.988342,564.498901 724.720642,553.253723 
	C729.060730,535.391724 728.884766,517.232971 727.344910,499.154846 
	C726.200317,485.718201 723.286377,472.586273 716.195374,460.638763 
	C704.424316,440.805908 681.687012,438.559967 667.438721,448.042511 
	C659.560730,453.285461 654.938843,461.255188 651.054871,470.532593 
z"/>
<path fill="#1e7e34" opacity="1.000000" stroke="none" 
	d="
M804.755310,479.047363 
	C810.400940,455.099976 819.237488,433.177856 837.164612,416.115051 
	C857.685730,396.583344 882.232666,389.620972 910.182190,393.196045 
	C939.779175,396.981781 959.906738,413.912354 974.454407,438.708710 
	C984.475830,455.790161 988.905701,474.610321 991.536072,494.071716 
	C995.185364,521.072510 993.177490,547.567505 985.039185,573.475586 
	C977.266968,598.218323 962.825134,618.515076 939.927612,631.058960 
	C911.667847,646.540405 882.543640,646.678040 854.072510,630.887390 
	C833.335571,619.386292 820.350281,601.195068 811.821228,579.509583 
	C799.465088,548.093506 797.736633,515.828796 804.197571,482.920898 
	C804.421265,481.781281 804.542053,480.621460 804.755310,479.047363 
M856.617920,494.043518 
	C854.886108,507.600769 853.800354,521.192871 855.371338,534.834595 
	C857.037476,549.302673 859.917419,563.388733 868.305420,575.799194 
	C882.451599,596.729004 911.954773,595.452148 925.219360,576.584961 
	C930.184692,569.522278 933.650391,561.820679 935.735107,553.577454 
	C940.528076,534.625183 940.816956,515.337830 938.481995,496.058960 
	C936.685730,481.228058 932.915710,466.967133 923.035706,455.062653 
	C915.146484,445.556732 905.004761,441.879150 892.914978,443.017822 
	C881.092651,444.131287 873.116333,451.078796 867.069092,460.583008 
	C860.763123,470.493774 858.421570,481.748322 856.617920,494.043518 
z"/>
<path fill="#1e7e34" opacity="1.000000" stroke="none" 
	d="
M307.775574,267.762207 
	C320.332977,257.247864 331.674957,245.830368 344.418671,236.096115 
	C346.999512,238.573883 346.209412,241.046371 346.210022,243.258850 
	C346.246063,370.563110 346.239227,497.867401 346.237701,625.171692 
	C346.237640,628.670837 346.187500,632.171448 346.274384,635.668640 
	C346.353210,638.839355 344.775543,640.296753 341.746857,640.287964 
	C324.085388,640.236816 306.424042,640.123047 288.762604,640.112305 
	C284.456787,640.109680 284.660950,637.275513 284.661743,634.319397 
	C284.668335,609.325073 284.632660,584.330811 284.628845,559.336487 
	C284.619232,496.684296 284.620453,434.032074 284.611969,371.379883 
	C284.611725,369.547577 284.701111,367.697723 284.487976,365.886688 
	C284.057587,362.228912 281.938812,361.230927 278.932007,363.175995 
	C275.864105,365.160553 273.064240,367.560455 270.154663,369.788483 
	C268.388367,371.141022 266.566864,371.920105 265.040253,369.600006 
	C256.482056,356.593689 244.641556,346.832336 232.921204,336.943573 
	C232.569626,336.646942 232.418945,336.112244 231.782593,335.008789 
	C256.978455,312.710388 282.242676,290.351532 307.775574,267.762207 
z"/>
<path fill="#1e7e34" opacity="1.000000" stroke="none" 
	d="
M776.602356,828.571045 
	C761.433167,846.388672 742.279541,855.971069 719.645447,859.327087 
	C697.242188,862.648926 674.736389,860.540894 652.283569,861.012817 
	C635.128479,861.373413 617.958252,861.046753 600.795044,860.973816 
	C594.957825,860.948975 594.042786,860.071167 594.017212,854.356812 
	C593.944824,838.194214 594.061768,822.029968 593.861328,805.869385 
	C593.803223,801.180664 595.292236,799.516724 600.196899,799.549805 
	C631.189941,799.758545 662.185608,799.550720 693.179016,799.726318 
	C707.632812,799.808228 720.101135,795.180054 729.948181,784.678711 
	C737.399963,776.731934 739.465759,766.375366 739.586975,755.941040 
	C739.923523,726.951355 739.877686,697.955139 739.692932,668.963440 
	C739.663147,664.286621 741.184387,661.776733 745.257935,659.591187 
	C766.345703,648.277161 782.828308,632.267578 793.754883,610.790161 
	C794.780273,608.774658 795.682556,606.622375 797.794922,605.268921 
	C799.690552,606.948120 799.527405,609.009949 799.490845,610.932861 
	C798.545532,660.750793 799.324890,710.574036 799.012207,760.393860 
	C798.871094,782.880737 794.035461,803.973877 781.078125,822.744873 
	C779.756226,824.659790 778.243408,826.442932 776.602356,828.571045 
z"/>
<path fill="#1e7e34" opacity="1.000000" stroke="none" 
	d="
M173.456787,667.453979 
	C178.569717,667.499084 183.264511,667.833130 187.890274,667.410889 
	C192.322311,667.006348 193.249268,668.821960 193.232574,672.816833 
	C193.119766,699.812012 193.183990,726.807983 193.207565,753.803650 
	C193.213989,761.173584 193.893311,768.419739 197.055786,775.241821 
	C205.158554,792.721069 220.179779,799.243408 238.023926,799.512390 
	C271.843994,800.022339 305.677765,799.629761 339.505829,799.601440 
	C346.227600,799.595825 346.237335,799.573730 346.241119,806.512085 
	C346.249969,822.676270 346.144928,838.841492 346.317841,855.003845 
	C346.366180,859.521545 344.768646,861.176880 340.204559,861.161255 
	C304.210632,861.038391 268.208282,861.543274 232.224609,860.922119 
	C208.351028,860.510010 185.615417,855.140442 166.527084,839.445801 
	C144.901901,821.665344 134.388062,798.336609 132.673676,770.761169 
	C130.655518,738.299377 132.433899,705.793030 131.666351,673.316772 
	C131.560257,668.827637 132.953705,666.959290 137.579025,667.064392 
	C149.385376,667.332703 161.198227,667.315430 173.456787,667.453979 
z"/>
<path fill="#1e7e34" opacity="1.000000" stroke="none" 
	d="
M696.895691,979.138428 
	C698.608398,987.297729 704.940735,989.936096 711.695496,991.513977 
	C719.797852,993.406677 727.676941,992.175537 734.609924,987.371887 
	C737.509338,985.362976 739.584595,985.399597 741.923401,987.969177 
	C743.938965,990.183594 745.982971,992.466125 748.379517,994.219360 
	C752.710022,997.387329 751.493469,999.720764 748.108521,1002.741760 
	C734.917114,1014.514709 710.226685,1016.715881 692.474487,1007.471680 
	C676.552185,999.180420 667.646179,982.795837 670.155518,966.410767 
	C673.185364,946.626221 685.957520,932.384583 704.150818,929.268860 
	C712.724670,927.800537 721.428894,928.046692 729.878845,930.676025 
	C747.891235,936.280701 759.894043,954.680847 758.172241,973.588135 
	C757.805420,977.615417 755.528748,977.989075 752.429077,977.991089 
	C736.097656,978.001648 719.766235,978.042480 703.434937,978.116760 
	C701.305969,978.126465 699.089539,977.624451 696.895691,979.138428 
M714.477112,947.532227 
	C707.692932,947.925232 701.674072,949.788940 698.000183,956.134277 
	C695.564392,960.341125 696.300415,961.791687 701.220764,961.844116 
	C710.378357,961.941650 719.537964,961.871826 728.696472,961.825867 
	C729.980652,961.819397 731.419678,962.005981 732.321167,960.549316 
	C732.630859,958.627075 731.546021,957.087097 730.628601,955.540955 
	C727.175049,949.720520 721.345764,948.411377 714.477112,947.532227 
z"/>
<path fill="#1e7e34" opacity="1.000000" stroke="none" 
	d="
M362.345276,968.130310 
	C363.338684,1006.703064 322.247833,1023.290161 293.118591,1007.173584 
	C275.938660,997.668213 268.234680,979.562134 272.883118,959.985413 
	C277.121826,942.134155 293.174286,929.545898 312.182495,928.595154 
	C323.837311,928.012207 334.725922,929.758423 344.592377,936.325684 
	C355.802307,943.787415 361.553223,954.305298 362.345276,968.130310 
M307.460205,989.200134 
	C315.182373,992.896179 322.748322,992.848572 329.485474,987.278992 
	C336.618591,981.382141 338.525574,973.406616 336.344757,964.671997 
	C334.311646,956.528809 328.836548,951.524109 320.553101,949.766174 
	C310.862061,947.709473 302.066833,952.609131 298.155548,962.210815 
	C294.156433,972.028137 297.656708,982.797058 307.460205,989.200134 
z"/>
<path fill="#1e7e34" opacity="1.000000" stroke="none" 
	d="
M589.785767,929.742310 
	C595.890259,928.890747 594.934692,933.430603 595.546936,936.580322 
	C597.848755,936.655029 598.997375,935.042542 600.432129,934.033752 
	C614.996399,923.793762 639.761169,927.764709 650.102722,941.846375 
	C654.938782,948.431580 655.779114,956.036743 655.959717,963.679382 
	C656.301941,978.163696 656.083069,992.660461 656.212158,1007.151123 
	C656.242554,1010.562988 654.793884,1012.034180 651.467285,1011.999329 
	C646.470886,1011.946960 641.466980,1011.813416 636.478699,1012.017822 
	C632.202454,1012.193054 630.617065,1010.595032 630.697693,1006.195251 
	C630.929871,993.540222 630.840515,980.877625 630.753845,968.218811 
	C630.674500,956.631592 625.220581,950.316589 615.354431,950.128845 
	C604.300049,949.918457 596.594238,957.006348 596.362427,968.175110 
	C596.099731,980.829346 596.123352,993.495728 596.354736,1006.150757 
	C596.434265,1010.503235 594.957520,1012.240906 590.651794,1012.062439 
	C585.495361,1011.848816 580.327332,1011.898315 575.164062,1011.871460 
	C572.265320,1011.856384 571.010681,1010.504578 571.011536,1007.560974 
	C571.018799,983.075012 570.986023,958.588867 570.883545,934.103149 
	C570.870117,930.902466 572.109253,929.584290 575.322876,929.685974 
	C579.982544,929.833374 584.649963,929.737000 589.785767,929.742310 
z"/>
<path fill="#1e7e34" opacity="1.000000" stroke="none" 
	d="
M401.303619,1005.801453 
	C401.885559,1010.738220 399.670990,1012.201416 395.500458,1012.034485 
	C390.511719,1011.834839 385.511353,1011.899292 380.516022,1011.900024 
	C377.658722,1011.900391 376.536255,1010.875977 376.553101,1007.705627 
	C376.682800,983.228577 376.662628,958.750000 376.501892,934.273071 
	C376.478638,930.725952 377.622314,929.474609 381.070282,929.658569 
	C384.723633,929.853455 388.394958,929.715576 392.058411,929.715515 
	C399.554810,929.715332 399.554810,929.713318 400.900482,936.661072 
	C403.196960,936.800903 404.267303,934.801086 405.819885,933.733459 
	C419.265564,924.487366 443.491180,927.583496 453.948090,940.050659 
	C459.366577,946.510864 460.851379,954.425293 460.993347,962.488037 
	C461.251343,977.137024 460.971832,991.794800 461.104492,1006.447266 
	C461.140808,1010.460449 459.814270,1012.285645 455.616302,1012.060181 
	C451.132568,1011.819336 446.616455,1011.784424 442.134064,1012.024902 
	C437.474823,1012.274780 435.600616,1010.625061 435.701569,1005.731445 
	C435.948883,993.747620 435.732819,981.754333 435.709625,969.764832 
	C435.704468,967.094971 435.561859,964.456421 434.862976,961.847534 
	C432.942719,954.678955 428.608582,950.806885 421.666016,950.184326 
	C413.049164,949.411560 407.429108,952.177002 404.218567,958.862549 
	C402.327972,962.799438 401.201233,966.874756 401.261841,971.354492 
	C401.414948,982.675964 401.309601,994.000854 401.303619,1005.801453 
z"/>
<path fill="#1e7e34" opacity="1.000000" stroke="none" 
	d="
M487.250458,1012.004150 
	C481.766327,1012.651672 480.458191,1010.529480 480.472168,1005.499512 
	C480.561371,973.384949 480.267365,941.269287 480.107635,909.153992 
	C480.097687,907.156860 480.167877,905.159363 480.181244,903.161987 
	C480.198669,900.559509 481.398254,899.089478 484.092896,899.079224 
	C490.085938,899.056396 496.079102,899.038452 502.072144,899.047424 
	C504.846527,899.051575 505.774170,900.620117 505.760925,903.235474 
	C505.586334,937.694641 505.404480,972.153931 505.375366,1006.613403 
	C505.372101,1010.490417 504.040955,1012.111816 500.199310,1012.000610 
	C496.040680,1011.880310 491.875366,1011.990540 487.250458,1012.004150 
z"/>
<path fill="#1e7e34" opacity="1.000000" stroke="none" 
	d="
M551.282715,961.000122 
	C551.230591,976.478088 551.060974,991.457214 551.208801,1006.433167 
	C551.249451,1010.544861 549.889587,1012.215088 545.772949,1012.046753 
	C540.787903,1011.843018 535.789673,1011.920349 530.797485,1011.944275 
	C527.776306,1011.958740 526.406433,1010.953369 526.406799,1007.531799 
	C526.409668,984.406372 526.161377,961.281128 526.065430,938.155518 
	C526.031128,929.876953 526.254333,929.741028 534.348206,929.726135 
	C538.342346,929.718750 542.345581,929.876343 546.328003,929.656738 
	C549.983276,929.455261 551.392395,930.841309 551.322876,934.539490 
	C551.160217,943.190186 551.279724,951.846252 551.282715,961.000122 
z"/>
<path fill="#1e7e34" opacity="1.000000" stroke="none" 
	d="
M237.299530,1009.830444 
	C231.403152,1003.855652 229.919418,997.055420 232.950592,991.019165 
	C235.903839,985.138062 242.550095,981.386963 248.455246,982.268494 
	C256.235260,983.429932 261.618866,988.371155 262.627899,995.587524 
	C263.519104,1001.961121 261.052887,1007.130371 255.828476,1010.645874 
	C249.763062,1014.727234 243.557480,1013.933960 237.299530,1009.830444 
z"/>
<path fill="#1e7e34" opacity="1.000000" stroke="none" 
	d="
M553.916199,908.542786 
	C552.053040,922.207886 534.726807,923.045959 527.205566,916.371155 
	C522.556519,912.245239 521.700806,904.799438 525.186462,899.532776 
	C528.670898,894.267822 537.134705,891.921204 544.587280,894.153503 
	C551.052612,896.090088 554.119690,900.646545 553.916199,908.542786 
z"/>
<path fill="#1e7e34" opacity="1.000000" stroke="none" 
	d="
M478.079376,525.456665 
	C467.516846,528.643555 459.229004,526.191772 454.392517,518.703918 
	C449.946716,511.820862 450.520172,500.802612 455.634216,494.845581 
	C460.768585,488.864990 469.025543,486.375519 476.367249,488.919800 
	C483.703430,491.462128 488.427124,496.463898 489.284302,504.422516 
	C490.285400,513.717468 487.395569,521.117126 478.079376,525.456665 
z"/>
</svg>